<?xml version="1.0" encoding="UTF-8" standalone="no"?>
<!-- Created with Inkscape (http://www.inkscape.org/) -->

<svg
   width="299mm"
   height="210mm"
   viewBox="0 0 299 210"
   version="1.1"
   id="svg5"
   sodipodi:docname="logo.svg"
   inkscape:version="1.2.1 (9c6d41e410, 2022-07-14)"
   xml:space="preserve"
   inkscape:export-filename="logo_V.png"
   inkscape:export-xdpi="1499.7058"
   inkscape:export-ydpi="1499.7058"
   xmlns:inkscape="http://www.inkscape.org/namespaces/inkscape"
   xmlns:sodipodi="http://sodipodi.sourceforge.net/DTD/sodipodi-0.dtd"
   xmlns="http://www.w3.org/2000/svg"
   xmlns:svg="http://www.w3.org/2000/svg"><sodipodi:namedview
     id="namedview7"
     pagecolor="#ffffff"
     bordercolor="#000000"
     borderopacity="0.25"
     inkscape:showpageshadow="2"
     inkscape:pageopacity="0.0"
     inkscape:pagecheckerboard="false"
     inkscape:deskcolor="#d1d1d1"
     inkscape:document-units="mm"
     showgrid="false"
     showguides="false"
     inkscape:lockguides="true"
     inkscape:zoom="0.70710678"
     inkscape:cx="441.94174"
     inkscape:cy="403.75797"
     inkscape:window-width="1522"
     inkscape:window-height="871"
     inkscape:window-x="69"
     inkscape:window-y="-9"
     inkscape:window-maximized="1"
     inkscape:current-layer="layer1"><sodipodi:guide
       position="0,210"
       orientation="0,1122.5197"
       id="guide9"
       inkscape:locked="true" /><sodipodi:guide
       position="295.00008,168.17413"
       orientation="793.70079,0"
       id="guide11"
       inkscape:locked="true" /><sodipodi:guide
       position="297,0"
       orientation="0,-1122.5197"
       id="guide13"
       inkscape:locked="true" /><sodipodi:guide
       position="0,0"
       orientation="-793.70079,0"
       id="guide15"
       inkscape:locked="true" /><sodipodi:guide
       position="0,210"
       orientation="0,1122.5197"
       id="guide17"
       inkscape:locked="true" /><sodipodi:guide
       position="149.99808,193.30438"
       orientation="793.70079,0"
       id="guide19"
       inkscape:locked="true" /><sodipodi:guide
       position="297,0"
       orientation="0,-1122.5197"
       id="guide21"
       inkscape:locked="true" /><sodipodi:guide
       position="0,0"
       orientation="-793.70079,0"
       id="guide23"
       inkscape:locked="true" /><sodipodi:guide
       position="38.076228,161.00041"
       orientation="0,-1"
       id="guide75"
       inkscape:locked="true" /><sodipodi:guide
       position="185.96613,88.98871"
       orientation="0,-1"
       id="guide77"
       inkscape:locked="true" /><sodipodi:guide
       position="3.9914317,205.93181"
       orientation="1,0"
       id="guide79"
       inkscape:locked="true" /><sodipodi:guide
       position="18.021639,124.99847"
       orientation="0,-1"
       id="guide81"
       inkscape:locked="true" /><sodipodi:guide
       position="309.81883,11.311834"
       orientation="0.70710678,-0.70710678"
       id="guide133"
       inkscape:locked="true" /><sodipodi:guide
       position="38.188883,142.99944"
       orientation="0,-1"
       id="guide135"
       inkscape:locked="true" /><sodipodi:guide
       position="53.462369,151.99837"
       orientation="0,-1"
       id="guide137"
       inkscape:locked="true" /><sodipodi:guide
       position="38.06486,156.49835"
       orientation="0,-1"
       id="guide139"
       inkscape:locked="true" /><sodipodi:guide
       position="38.174414,147.49839"
       orientation="0,-1"
       id="guide141"
       inkscape:locked="true" /><sodipodi:guide
       position="25.201562,133.99844"
       orientation="0,-1"
       id="guide143"
       inkscape:locked="true" /><sodipodi:guide
       position="52.346158,138.49635"
       orientation="0,-1"
       id="guide145"
       inkscape:locked="true" /><sodipodi:guide
       position="22.269442,129.49949"
       orientation="0,-1"
       id="guide147"
       inkscape:locked="true" /><sodipodi:guide
       position="38.20852,120.50159"
       orientation="0,-1"
       id="guide149"
       inkscape:locked="true" /><sodipodi:guide
       position="38.13824,115.99954"
       orientation="0,-1"
       id="guide151"
       inkscape:locked="true" /><sodipodi:guide
       position="57.132202,111.49781"
       orientation="0,-1"
       id="guide153"
       inkscape:locked="true" /><sodipodi:guide
       position="57.35437,106.99599"
       orientation="0,-1"
       id="guide155"
       inkscape:locked="true" /><sodipodi:guide
       position="38.246761,102.49752"
       orientation="0,-1"
       id="guide157"
       inkscape:locked="true" /><sodipodi:guide
       position="58.067646,98.004043"
       orientation="0,-1"
       id="guide159"
       inkscape:locked="true" /><sodipodi:guide
       position="58.266428,93.490529"
       orientation="0,-1"
       id="guide161"
       inkscape:locked="true" /><sodipodi:guide
       position="87.198811,180.81417"
       orientation="1,0"
       id="guide165"
       inkscape:locked="true" /><sodipodi:guide
       position="45.599283,165.95928"
       orientation="1,0"
       id="guide167"
       inkscape:locked="true" /><sodipodi:guide
       position="24.798018,170.92185"
       orientation="1,0"
       id="guide1141"
       inkscape:locked="true" /><sodipodi:guide
       position="35.219442,188.8239"
       orientation="1,0"
       id="guide1143"
       inkscape:locked="true" /><sodipodi:guide
       position="66.396014,184.47993"
       orientation="1,0"
       id="guide1145"
       inkscape:locked="true" /><sodipodi:guide
       position="55.996581,187.32438"
       orientation="1,0"
       id="guide1147"
       inkscape:locked="true" /></sodipodi:namedview><defs
     id="defs2"><inkscape:path-effect
       effect="powerstroke"
       id="path-effect7151"
       is_visible="true"
       lpeversion="1"
       offset_points="0,0"
       not_jump="false"
       sort_points="true"
       interpolator_type="CubicBezierJohan"
       interpolator_beta="0.2"
       start_linecap_type="zerowidth"
       linejoin_type="extrp_arc"
       miter_limit="4"
       scale_width="1"
       end_linecap_type="zerowidth" /><rect
       x="320"
       y="269"
       width="794"
       height="187"
       id="rect24331" /><inkscape:path-effect
       effect="powerstroke"
       id="path-effect4944"
       is_visible="true"
       lpeversion="1"
       offset_points="0,0.10791103"
       not_jump="false"
       sort_points="true"
       interpolator_type="CubicBezierJohan"
       interpolator_beta="0.2"
       start_linecap_type="zerowidth"
       linejoin_type="extrp_arc"
       miter_limit="4"
       scale_width="1"
       end_linecap_type="zerowidth" /><inkscape:path-effect
       effect="powerstroke"
       id="path-effect4005"
       is_visible="true"
       lpeversion="1"
       offset_points="0,0.10791103"
       not_jump="false"
       sort_points="true"
       interpolator_type="CubicBezierJohan"
       interpolator_beta="0.2"
       start_linecap_type="zerowidth"
       linejoin_type="extrp_arc"
       miter_limit="4"
       scale_width="1"
       end_linecap_type="zerowidth" /><inkscape:path-effect
       effect="powerstroke"
       id="path-effect1213"
       is_visible="true"
       lpeversion="1"
       offset_points="0.10193183,0.10791103"
       not_jump="false"
       sort_points="true"
       interpolator_type="CubicBezierJohan"
       interpolator_beta="0.2"
       start_linecap_type="zerowidth"
       linejoin_type="extrp_arc"
       miter_limit="4"
       scale_width="1"
       end_linecap_type="zerowidth" /><inkscape:path-effect
       effect="powerstroke"
       id="path-effect1205"
       is_visible="true"
       lpeversion="1"
       offset_points="0,4.9921384"
       not_jump="false"
       sort_points="true"
       interpolator_type="CubicBezierJohan"
       interpolator_beta="0.2"
       start_linecap_type="zerowidth"
       linejoin_type="extrp_arc"
       miter_limit="4"
       scale_width="1"
       end_linecap_type="zerowidth" /><inkscape:path-effect
       effect="fill_between_many"
       method="bsplinespiro"
       linkedpaths="#path4942,0,1"
       id="path-effect4946" /><inkscape:path-effect
       effect="fill_between_many"
       method="bsplinespiro"
       linkedpaths="#path7149,0,1"
       id="path-effect7153" /></defs><g
     inkscape:label="Layer 1"
     inkscape:groupmode="layer"
     id="layer1"
     style="display:inline"><g
       id="g6856"
       inkscape:label="guides"
       sodipodi:insensitive="true"
       style="display:none"><path
         style="color:#000000;display:none;fill:#bfbfbf;fill-rule:evenodd;stroke-width:3.66748;stroke-linecap:round;stroke-linejoin:round;-inkscape-stroke:none;paint-order:markers stroke fill"
         d="M 50.730755,77.259017 31.441037,43.994591"
         id="path22629" /><g
         id="path5261-5-4-8-50"
         inkscape:transform-center-x="-20.571214"
         inkscape:transform-center-y="-46.132983"
         style="display:none" /><path
         style="display:none;fill:none;fill-opacity:1;stroke:#171717;stroke-width:0.0705556;stroke-linecap:square;stroke-linejoin:miter;stroke-dasharray:none;stroke-opacity:1;paint-order:markers stroke fill"
         d="M 87.180207,48.815624 45.508333,121.04687"
         id="path15222" /><path
         style="display:none;fill:#bfbfbf;fill-opacity:1;fill-rule:evenodd;stroke:#171717;stroke-width:0.0352778;stroke-linecap:round;stroke-linejoin:round;stroke-dasharray:none;stroke-opacity:1;paint-order:markers stroke fill"
         d="M 45.55609,120.9996 1.8355469,45.293359"
         id="path19861" /><path
         style="display:none;fill:#bfbfbf;fill-opacity:1;fill-rule:evenodd;stroke:#171717;stroke-width:0.0352778;stroke-linecap:round;stroke-linejoin:round;stroke-dasharray:none;stroke-opacity:1;paint-order:markers stroke fill"
         d="M 25.035272,85.610412 -18.685271,9.904171"
         id="path19861-3" /><path
         style="display:none;fill:#ffffff;fill-opacity:1;fill-rule:evenodd;stroke:#ff3f09;stroke-width:0.235;stroke-linecap:round;stroke-linejoin:round;stroke-dasharray:none;stroke-opacity:1;paint-order:markers stroke fill"
         d="M 49.112355,120.27083 5.3918119,44.564588"
         id="path19861-6" /><path
         style="display:none;fill:#ffffff;fill-opacity:1;fill-rule:evenodd;stroke:#ff3f09;stroke-width:0.235;stroke-linecap:round;stroke-linejoin:round;stroke-dasharray:none;stroke-opacity:1;paint-order:markers stroke fill"
         d="M 36.213917,85.478121 -7.5066258,9.7718787"
         id="path19861-6-7" /><path
         style="display:none;fill:#ffffff;fill-opacity:1;fill-rule:evenodd;stroke:#ff3f09;stroke-width:0.235;stroke-linecap:round;stroke-linejoin:round;stroke-dasharray:none;stroke-opacity:1;paint-order:markers stroke fill"
         d="M 43.15923,86.668746 -0.56131312,10.962504"
         id="path19861-6-0" /><path
         style="display:none;fill:#ffffff;fill-opacity:1;fill-rule:evenodd;stroke:#ff3f09;stroke-width:0.235;stroke-linecap:round;stroke-linejoin:round;stroke-dasharray:none;stroke-opacity:1;paint-order:markers stroke fill"
         d="M 51.625896,87.197912 7.9053533,11.49167"
         id="path19861-6-5" /><path
         style="display:none;fill:#bfbfbf;fill-opacity:1;fill-rule:evenodd;stroke:#171717;stroke-width:0.0352778;stroke-linecap:round;stroke-linejoin:round;stroke-dasharray:none;stroke-opacity:1;paint-order:markers stroke fill"
         d="M 61.77223,92.816296 18.051687,17.110055"
         id="path19861-7" /><g
         id="path23559"
         style="display:none" /><g
         id="path23559-8"
         style="display:none" /><g
         id="path23559-0"
         style="display:none" /><g
         id="path23559-7"
         style="display:none" /><g
         id="path23559-2"
         style="display:none" /></g><g
       aria-label="ISION"
       transform="matrix(0.99685514,0,0,1.0031548,-0.52916667,0)"
       id="text40820"
       style="font-weight:bold;font-size:69.2832px;font-family:Heuristica;-inkscape-font-specification:'Heuristica, Bold';font-variant-ligatures:discretionary-ligatures;display:inline;fill:#275478;fill-rule:evenodd;stroke-width:0.0175722;stroke-linecap:round;stroke-linejoin:bevel;paint-order:markers stroke fill"
       inkscape:label="ISIN"
       sodipodi:insensitive="true"><g
         id="g603"><path
           d="m 87.569629,120.6338 h 22.680531 v -2.71026 c -5.06391,-0.21396 -5.63448,-0.57056 -5.63448,-4.20801 V 78.196975 c 0,-3.63744 0.57057,-3.994052 5.63448,-4.20802 v -2.71025 H 87.569629 v 2.71025 c 5.063889,0.213968 5.634469,0.57058 5.634469,4.20802 v 35.518555 c 0,3.63745 -0.57058,3.99405 -5.634469,4.20801 z"
           id="path389"
           style="fill:#0f7360;fill-opacity:1;stroke-width:0.0180894" /><path
           d="m 115.35011,104.16052 1.02532,12.23553 c 3.4861,3.21268 10.25324,4.23799 14.76467,4.23799 13.67097,-0.13669 17.77226,-7.51903 17.77226,-14.62793 0,-9.022854 -6.69877,-12.508953 -12.91907,-15.10644 -4.51142,-1.845582 -10.18488,-4.306359 -10.18488,-9.50133 0,-4.238004 3.00761,-6.972201 7.1089,-6.972201 4.37472,0 8.47602,3.07597 10.38995,11.073495 h 2.46078 V 74.289431 c -3.55445,-2.187358 -8.61272,-3.007617 -12.78237,-3.007617 -11.48361,0 -17.02037,5.946876 -17.02037,14.012754 0,8.476007 7.5874,12.167171 13.60263,14.69631 6.2203,2.597482 9.09119,5.673452 9.09119,10.048172 -0.0683,5.05825 -3.34938,7.45067 -7.79244,7.45067 -5.19498,0 -10.38996,-4.78484 -12.98744,-13.3292 z"
           id="path391"
           style="fill:#0f7360;fill-opacity:1;stroke-width:0.0173368" /><path
           d="m 153.0428,120.63153 h 22.67966 v -2.71016 c -5.0637,-0.21396 -5.63426,-0.57055 -5.63426,-4.20785 V 78.196309 c 0,-3.637304 0.57056,-3.993902 5.63426,-4.207862 V 71.2783 H 153.0428 v 2.710147 c 5.0637,0.21396 5.63425,0.570558 5.63425,4.207862 v 35.517211 c 0,3.6373 -0.57055,3.99389 -5.63425,4.20785 z"
           id="path393"
           style="fill:#0f7360;fill-opacity:1;stroke-width:0.0180887" /><path
           d="m 233.73044,120.62346 h 17.18523 v -2.70971 l -3.99324,-0.35654 c -1.99664,-0.14262 -2.52295,-1.05041 -2.68996,-3.77932 -0.19139,-2.89348 -0.0953,-6.34333 -0.19705,-11.12405 l -0.0422,-21.820265 h 0.0155 c 8.77089,13.263293 17.24667,26.526585 25.73233,39.789885 h 8.8761 l -0.0938,-31.375538 c -0.0175,-5.847232 -0.05,-8.66124 0.003,-11.124053 0.048,-2.396874 0.34218,-3.565401 1.98226,-3.779325 l 2.49578,-0.356541 v -2.709704 h -17.18524 v 2.709704 l 3.99325,0.356541 c 1.99663,0.142616 2.44925,1.283544 2.66317,3.779325 0.28523,2.56709 0.25375,5.276907 0.29019,11.124053 l 0.0995,15.972988 h 0.0134 C 265.3199,93.882944 257.76124,82.616275 250.41652,71.278299 h -16.90001 v 2.709704 c 5.06288,0.213925 4.97646,0.570465 4.97646,4.207174 v 24.458663 c 0,5.84725 -9.2e-4,8.53502 -0.075,11.12405 -0.0966,2.56572 -0.55164,3.56539 -2.19173,3.77932 l -2.49578,0.35654 z"
           id="path397"
           style="fill:#0f7360;fill-opacity:1;stroke-width:0.0180857"
           sodipodi:nodetypes="cccccsccccsccccccccscccccsscccc" /></g></g><g
       id="g9510"
       inkscape:label="arrow"
       style="fill:#fcb100;fill-opacity:1"
       transform="matrix(1.1522333,0,0,1.1522333,-13.271733,-7.4515041)"
       sodipodi:insensitive="true"><path
         sodipodi:type="star"
         style="display:none;fill:#fcb100;fill-opacity:1;stroke:#888888;stroke-width:0;stroke-linecap:square;stroke-linejoin:miter;stroke-dasharray:none;stroke-opacity:1;paint-order:markers stroke fill"
         id="path3947"
         inkscape:flatsided="true"
         sodipodi:sides="3"
         sodipodi:cx="67.865623"
         sodipodi:cy="59.795834"
         sodipodi:r1="20.108767"
         sodipodi:r2="10.054384"
         sodipodi:arg1="1.5773752"
         sodipodi:arg2="2.6245727"
         inkscape:rounded="0"
         inkscape:randomized="0"
         d="M 67.733331,79.904165 50.517444,49.6271 85.346095,49.856236 Z"
         inkscape:transform-center-x="-0.066319611"
         inkscape:transform-center-y="4.9928296"
         transform="matrix(1.0026858,0,0,1.0046344,9.6539034,10.146879)" /><path
         style="display:none;fill:#fcb100;fill-opacity:1;fill-rule:nonzero;stroke:none;stroke-width:0.017;stroke-linecap:round;stroke-linejoin:bevel;paint-order:markers stroke fill"
         d="M 79.045309,69.119301 C 82.509738,67.166647 88.463375,63.811003 95.117712,60.060423 90.053855,68.830555 84.572187,78.324299 79.50833,87.094431 79.316629,79.652322 79.145114,72.993865 79.045309,69.119301 Z m 0,0 c 0.09981,3.874564 0.27132,10.533021 0.463021,17.97513 5.063857,-8.770132 10.545525,-18.263876 15.609382,-27.034008 -6.654337,3.75058 -12.607974,7.106224 -16.072403,9.058878 z"
         id="path7149"
         inkscape:linked-fill="path7155"
         inkscape:original-d="M 79.045309,69.119301 95.117712,60.060423 79.50833,87.094431 Z"
         inkscape:path-effect="#path-effect7151" /><path
         style="display:inline;fill:#fcb100;fill-opacity:1;fill-rule:nonzero;stroke:none;stroke-width:0.264583;stroke-opacity:1"
         d="m 87.18021,48.947922 -31.220837,0.06615 15.147396,8.9917 0.463021,17.979264 z"
         id="path29654" /><path
         d="M 71.107804,58.006794 87.180207,48.947916 71.570825,75.981924 Z"
         id="path7155"
         style="display:inline;fill:#df9d00;fill-opacity:1;stroke:none" /></g><g
       id="g9519"
       inkscape:label="V"
       style="display:inline"
       transform="translate(-7.9375004,-11.112501)"
       sodipodi:insensitive="true"><g
         id="g35607"
         style="fill:#7b8c8e;fill-opacity:1;stroke:none"
         transform="translate(7.9375004,11.112501)"
         inkscape:label="V dots"><path
           style="fill:#7b8c8e;fill-opacity:1;fill-rule:nonzero;stroke:none;stroke-width:0.264583;stroke-opacity:1"
           d="m 43.030965,104.52437 c -0.611047,0 -1.091922,0.4802 -1.091923,1.10432 -2e-6,0.62419 0.480874,1.10278 1.091923,1.10278 0.611051,0 1.091407,-0.47859 1.091406,-1.10278 -2e-6,-0.62412 -0.480356,-1.10432 -1.091406,-1.10432 z"
           id="path29664" /><path
           style="fill:#7b8c8e;fill-opacity:1;fill-rule:nonzero;stroke:none;stroke-width:0.264583;stroke-opacity:1"
           d="m 44.749207,92.5158 c -0.551078,0 -1.020093,0.462713 -1.020093,1.109493 0,0.646781 0.469015,1.107942 1.020093,1.107943 0.551073,10e-7 1.020092,-0.461161 1.020092,-1.107943 0,-0.646782 -0.469019,-1.109494 -1.020092,-1.109493 z"
           id="path29662" /><path
           style="fill:#7b8c8e;fill-opacity:1;fill-rule:nonzero;stroke:none;stroke-width:0.264583;stroke-opacity:1"
           d="m 45.194657,80.285022 c -0.611047,10e-7 -1.091406,0.478082 -1.091406,1.102258 0,0.624181 0.480359,1.104325 1.091406,1.104326 0.611051,0 1.089856,-0.480145 1.089856,-1.104326 0,-0.624176 -0.478805,-1.102258 -1.089856,-1.102258 z"
           id="path29660" /><path
           style="fill:#7b8c8e;fill-opacity:1;fill-rule:nonzero;stroke:none;stroke-width:0.264583;stroke-opacity:1"
           d="m 26.966829,77.847445 c -0.611046,0 -1.091923,0.478081 -1.091923,1.102258 -1e-6,0.624179 0.480877,1.104325 1.091923,1.104325 0.61105,0 1.089856,-0.480146 1.089856,-1.104325 0,-0.624177 -0.478806,-1.102258 -1.089856,-1.102258 z"
           id="path29658" /><path
           style="fill:#7b8c8e;fill-opacity:1;fill-rule:nonzero;stroke:none;stroke-width:0.264583;stroke-opacity:1"
           d="m 30.756262,60.444373 c -0.990038,0.04538 -1.371801,1.485221 -0.516247,2.022615 1.570691,1.05673 2.482769,-2.028315 0.613916,-2.022615 -0.03318,-0.0015 -0.06573,-0.0015 -0.09767,0 z"
           id="path29656" /></g><path
         style="fill:#0f7360;fill-opacity:1;fill-rule:nonzero;stroke:none;stroke-width:0.264583;stroke-opacity:1"
         d="m 13.903029,45.755359 a 1.95634,1.95634 0 0 0 -0.875915,0.259415 1.95634,1.95634 0 0 0 -0.716752,2.672189 l 6.6089,11.467517 h -0.04858 c 0.0626,0.108689 0.171372,0.294926 0.19637,0.33848 l 10.02006,17.450098 0.26355,0.02067 c 0,0 2.140612,0.162832 4.508252,0.615983 1.183822,0.226575 2.429035,0.523106 3.536735,0.932243 1.107701,0.409135 2.1117,0.874636 2.780709,1.795239 0.354094,0.487253 0.957109,1.462689 1.754932,2.78846 0.561513,-0.05698 1.762452,-0.154854 3.09025,-0.111104 0.913421,0.03009 1.891384,0.122705 2.811198,0.368453 0.919815,0.245744 1.832863,0.633931 2.459282,1.46606 1.619906,2.151879 2.210201,3.430798 2.210201,3.430798 l 0.101285,0.22531 c 0.171836,-0.03054 0.348565,-0.04651 0.52865,-0.04651 1.681105,-10e-7 3.058727,1.389521 3.058728,3.07113 -10e-7,1.681614 -1.377623,3.072682 -3.058728,3.072681 -1.681099,0 -3.060277,-1.391068 -3.060278,-3.072681 0,-0.648041 0.204929,-1.252326 0.552938,-1.750797 L 50.38142,90.208974 c 0,0 -0.425682,-0.966629 -1.949235,-2.990515 -0.13112,-0.174179 -0.549097,-0.443516 -1.200444,-0.617533 -0.651344,-0.17402 -1.484506,-0.263455 -2.287199,-0.289905 -0.604816,-0.01993 -1.187753,-0.0061 -1.679484,0.0186 1.05833,1.78219 2.257042,3.823359 3.433383,5.83737 2.788648,4.774439 5.39967,9.302789 5.39967,9.302789 l 0.130741,0.2279 h 5.17e-4 c 0.148937,-0.0238 0.301672,-0.0367 0.457337,-0.0367 1.662127,0 2.988446,1.41178 2.988448,3.07685 -2e-6,1.66508 -1.326321,3.07635 -2.988448,3.07634 -1.66213,0 -2.987414,-1.41126 -2.987415,-3.07634 10e-7,-0.66033 0.209163,-1.28071 0.564307,-1.78906 l -0.182935,-0.31729 c 0,0 -2.170307,-3.762358 -4.650879,-8.018137 -0.262664,0.720834 -0.639302,1.835694 -0.943611,3.076298 -0.519651,2.118477 -0.613301,4.538569 -0.09508,5.369199 1.311739,2.10258 5.635044,9.47407 6.307625,10.62166 0.08894,-0.007 0.178861,-0.0119 0.269751,-0.0119 1.681098,0 3.058725,1.39113 3.058728,3.07268 4e-6,1.68163 -1.377625,3.07114 -3.058728,3.07114 -1.681104,0 -3.058214,-1.38951 -3.058211,-3.07114 2e-6,-0.74843 0.272882,-1.43922 0.723987,-1.97559 -0.794702,-1.35501 -5.010473,-8.5395 -6.218225,-10.47539 -1.300714,-2.0849 -0.759566,-4.833859 -0.19017,-7.155157 0.569397,-2.321298 1.370976,-4.243668 1.370976,-4.243668 l 0.344165,-0.826813 c -1.146895,-1.959667 -2.290509,-3.906408 -3.254065,-5.51956 -1.174383,-1.966113 -2.142657,-3.524334 -2.393135,-3.869015 -0.140865,-0.193831 -0.789766,-0.643225 -1.703772,-0.980818 -0.914008,-0.337596 -2.060914,-0.618597 -3.167766,-0.83044 -1.088964,-0.208423 -2.132004,-0.351768 -2.913517,-0.444418 l 3.806486,6.628536 c 0.19082,-0.03797 0.387785,-0.05788 0.589111,-0.05788 1.681104,-10e-7 3.058212,1.389521 3.058212,3.07113 1e-6,1.68161 -1.377108,3.07113 -3.058212,3.07113 -1.681101,0 -3.060278,-1.38952 -3.060278,-3.07113 0,-0.614512 0.183917,-1.189825 0.499711,-1.672766 -0.02781,-0.03391 -0.05359,-0.0697 -0.07751,-0.106454 l -3.699516,-6.4425 a 1.8681347,1.8681347 0 0 0 -0.201538,-0.51108 l -8.68733,-14.968578 -2.685108,-4.6762 c -0.121176,-0.210691 -0.500318,-0.8248 -0.901755,-1.530656 h -0.0155 L 13.937653,56.46995 a 1.8681347,1.8681347 0 0 0 -1.136882,-0.86713 1.8681347,1.8681347 0 0 0 -0.581877,-0.05994 1.8681347,1.8681347 0 0 0 -0.836124,0.24908 1.8681347,1.8681347 0 0 0 -0.677478,2.552816 l 14.429611,24.85946 a 1.8681347,1.8681347 0 0 0 0.04444,0.05994 L 53.434984,132.16466 69.626244,103.96579 60.312601,87.840645 A 1.83374,1.83374 0 0 0 60.160155,87.499581 L 55.219371,78.978654 40.974763,54.219958 a 1.86101,1.86101 0 0 0 -1.12913,-0.869197 1.86101,1.86101 0 0 0 -0.578776,-0.0615 1.86101,1.86101 0 0 0 -0.833024,0.244946 1.86101,1.86101 0 0 0 -0.01912,0.01395 1.83374,1.83374 0 0 0 -0.04909,0.01964 1.83374,1.83374 0 0 0 -0.213424,0.173633 1.86101,1.86101 0 0 0 -0.06666,0.05374 1.83374,1.83374 0 0 0 -0.386023,2.278414 l 1.216463,2.09858 a 1.1637343,1.1637343 0 0 1 0.128674,0.157096 l 11.09183,19.27841 a 1.1637343,1.1637343 0 0 1 -0.504879,1.423686 1.1637343,1.1637343 0 0 1 -1.58905,-0.428398 L 37.428726,60.158097 h -0.05633 L 29.939261,47.409521 a 1.8586097,1.8586097 0 0 0 -1.132748,-0.859379 1.8586097,1.8586097 0 0 0 -0.578776,-0.05891 1.8586097,1.8586097 0 0 0 -0.805635,0.238745 1.73408,1.73408 0 0 0 -0.04909,0.01964 1.73408,1.73408 0 0 0 -0.134359,0.109038 1.8586097,1.8586097 0 0 0 -0.208772,0.170015 1.73408,1.73408 0 0 0 -0.152963,0.179834 1.8586097,1.8586097 0 0 0 -0.167948,0.259416 1.73408,1.73408 0 0 0 -0.0615,0.117305 1.8586097,1.8586097 0 0 0 0.08113,1.697054 l 6.340698,10.874789 h -0.01757 l 4.871538,8.441862 c 0.256248,0.303169 0.351327,0.909941 0.72347,0.994771 1.975159,-0.162098 3.671316,1.930855 3.106787,3.830257 -0.414927,1.866698 -2.761881,2.922745 -4.416785,1.934766 -1.667506,-0.840567 -2.140198,-3.269967 -0.889351,-4.662248 -0.717045,-1.242505 -1.434274,-2.484903 -2.15129,-3.727421 A 1.8344444,1.8344444 0 0 0 34.125052,66.587162 L 32.654857,64.12478 c -0.763295,-1.32272 -1.526463,-2.645531 -2.289782,-3.968233 h -0.07906 l -3.020488,-5.05964 a 1.8344444,1.8344444 0 0 0 -1.127063,-0.837675 1.8344444,1.8344444 0 0 0 -0.475423,-0.05581 1.8344444,1.8344444 0 0 0 -0.913123,0.258899 1.8344444,1.8344444 0 0 0 -0.634586,2.515608 l 6.85953,11.490255 a 1.8344444,1.8344444 0 0 0 0.09043,0.118856 l 2.051555,3.537769 A 1.1960602,1.1960602 0 0 1 32.681729,73.760368 1.1960602,1.1960602 0 0 1 31.04617,73.325252 L 27.512019,67.230534 15.699302,46.733594 a 1.95634,1.95634 0 0 0 -1.187524,-0.914157 1.95634,1.95634 0 0 0 -0.608749,-0.06408 z"
         id="path23466"
         inkscape:label="V" /><path
         style="display:inline;fill:none;stroke:none;stroke-width:0.264583;stroke-opacity:1"
         d="m 11.873179,60.126574 83.263136,-0.0186 -41.601796,72.013016 z"
         id="path225" /></g><g
       id="g9529"
       inkscape:label="Gear"
       transform="translate(-7.4083336,-11.112501)"
       style="display:inline"
       sodipodi:insensitive="true"><path
         fill="#000000"
         fill-rule="evenodd"
         d="m 235.83834,109.89315 -0.0218,-7.2799 -6.96434,-0.0223 -1.85985,-4.54489 4.94133,-4.99646 -6.85963,-6.532294 -4.8755,4.887728 -4.52304,-1.81619 -0.0348,-6.963537 -9.46223,-0.02184 0.0325,6.811437 -4.54553,2.034448 -5.04011,-4.96304 -6.59777,6.706895 4.97502,4.831695 -1.90349,4.566718 -6.96354,-0.0199 -0.0218,9.51644 6.96421,0.0442 2.01264,4.41378 -4.9194,4.99659 6.72871,6.64142 4.87547,-4.95322 4.54473,2.03445 0.10039,6.85442 9.38557,-0.0218 0.0328,-6.92058 4.56737,-1.88179 4.95283,4.8977 6.61956,-6.72871 -4.9645,-4.83183 1.81701,-4.52291 7.07264,-0.0787 z m -24.79692,7.39992 c -5.49224,0 -9.92568,-4.43357 -9.92568,-9.9257 0,-5.49231 4.43344,-9.925778 9.92568,-9.925778 5.49224,0 9.92569,4.433468 9.92569,9.925778 0,5.49213 -4.43345,9.9257 -9.92569,9.9257 z"
         id="path28714"
         style="display:inline;fill:#7b8c8e;fill-opacity:1;stroke-width:3.30856"
         sodipodi:nodetypes="ccccccccccccccccccccccccccccccccccsssss" /><path
         id="path8665"
         style="display:inline;fill:#5b6c6e;fill-opacity:1;fill-rule:evenodd;stroke:none;stroke-width:0.0206119;stroke-linecap:round;stroke-linejoin:bevel;paint-order:markers stroke fill"
         d="m 211.02201,91.934724 a 15.481567,15.481567 0 0 0 -15.48142,15.481456 15.481567,15.481567 0 0 0 15.48142,15.48204 15.481567,15.481567 0 0 0 15.48201,-15.48204 15.481567,15.481567 0 0 0 -15.48201,-15.481456 z m 0.0258,3.911315 a 11.544649,11.541346 0 0 1 11.5449,11.541331 11.544649,11.541346 0 0 1 -11.5449,11.54132 11.544649,11.541346 0 0 1 -11.54428,-11.54132 11.544649,11.541346 0 0 1 11.54428,-11.541331 z" /></g></g></svg>
